:SAMPLES-PER-SECOND 30
:FRAME-RANGE 1-663
:FULLY-SPECIFIED
:DEGREES
601
root  -1.13273 33.512 -134.712 -135.482 -3.24483 -173.644
RightUpLeg  -83.4985 -7.18763 13.776
RightLeg  50.3112 -8.39142 -11.0508
RightFoot  -10.3324 -0.113876 4.95916
RightToes  2.91037e-010 0 -3.6325e-017
Spine  31.2877 -11.6252 -14.8338
Spine1  65.2879 0.863108 -26.5918
HEad  -80.5494 40.2759 -8.8777
LeftShoulder1  -1.01707 19.9405 2.69989
LeftArm  -99.0155 -32.112 56.0207
LeftForeArm  -36.2548 -11.0913 7.58851
LeftHand  0.579475 1.68373 -18.6067
RightShoulder  -18.8806 32.41 -64.8594
RightArm  -161.055 32.9622 -29.2521
RightForeArm  6.33864 19.1046 -5.18084
RightHand  1.34383 3.3574 17.4467
LeftUpLeg  -94.0375 24.8103 -22.3463
LeftLeg  54.0727 -2.87068 -3.78283
LeftFoot  -10.4853 0.0411954 2.92485
LeftToes  -4.9116e-011 5.71383e-011 -3.31847e-011
602
root  -1.3215 33.5778 -134.751 -136.179 -3.07218 -173.899
RightUpLeg  -82.6086 -7.561 12.9103
RightLeg  50.1736 -8.46554 -11.0886
RightFoot  -10.2416 -0.120075 5.25759
RightToes  2.91037e-010 0 -3.6325e-017
Spine  32.3243 -10.8846 -14.0426
Spine1  64.3523 0.703909 -25.6666
HEad  -78.2743 38.4152 -7.23168
LeftShoulder1  -0.835955 18.8598 3.52586
LeftArm  -97.4881 -34.1076 56.4731
LeftForeArm  -37.5937 -9.67923 7.43281
LeftHand  0.513999 1.83619 -17.3191
RightShoulder  -18.5516 33.2834 -62.8552
RightArm  -150.759 33.3877 -29.1996
RightForeArm  0.651522 16.6174 -8.92433
RightHand  1.26369 3.51019 16.1166
LeftUpLeg  -92.8885 24.7727 -22.3347
LeftLeg  53.9915 -2.69322 -3.50912
LeftFoot  -10.8713 0.0533855 2.91867
LeftToes  -4.9116e-011 5.71383e-011 -3.31847e-011
603
root  -1.47409 33.6997 -134.731 -137.435 -2.77968 -174.211
RightUpLeg  -81.1515 -7.82711 11.785
RightLeg  49.8827 -8.59667 -11.1354
RightFoot  -9.82658 -0.138969 5.45638
RightToes  2.91037e-010 0 -3.6325e-017
Spine  33.7441 -9.825 -12.9267
Spine1  63.4146 0.687605 -24.2592
HEad  -76.3341 35.6953 -5.46513
LeftShoulder1  -0.663294 17.311 4.23476
LeftArm  -98.3642 -36.4481 57.6409
LeftForeArm  -36.7894 -8.37979 7.08191
LeftHand  0.474157 1.99092 -16.5507
RightShoulder  -17.7814 33.8563 -60.1798
RightArm  -137.373 34.1054 -29.1949
RightForeArm  -9.58788 12.8158 -12.4821
RightHand  1.0774 3.07128 14.4741
LeftUpLeg  -91.1209 25.0292 -22.2069
LeftLeg  53.6487 -2.58163 -3.29934
LeftFoot  -10.9108 0.054011 3.08431
LeftToes  -4.9116e-011 5.71383e-011 -3.31847e-011
604
root  -1.60081 33.836 -134.686 -139.056 -2.449 -174.657
RightUpLeg  -79.3642 -8.42602 10.8609
RightLeg  49.5166 -8.55923 -10.9491
RightFoot  -9.50009 -0.152044 5.43916
RightToes  2.91037e-010 0 -3.6325e-017
Spine  35.5002 -8.70969 -11.9759
Spine1  62.1059 0.493204 -22.6498
HEad  -74.6388 32.903 -4.04727
LeftShoulder1  -0.517546 15.5098 4.78041
LeftArm  -99.8573 -38.691 58.9138
LeftForeArm  -34.9182 -7.00221 6.41313
LeftHand  0.400999 2.14084 -14.9954
RightShoulder  -17.144 34.4736 -57.8174
RightArm  -121.598 34.9701 -28.9672
RightForeArm  -21.988 7.71338 -14.9978
RightHand  0.910072 2.28531 13.5269
LeftUpLeg  -89.0561 25.5402 -22.2874
LeftLeg  53.2358 -2.59804 -3.26897
LeftFoot  -10.8619 0.0517229 3.24741
LeftToes  -4.9116e-011 5.71383e-011 -3.31847e-011
605
root  -1.71647 34.0215 -134.629 -140.142 -2.29308 -174.822
RightUpLeg  -77.8326 -8.6673 10.2308
RightLeg  48.6205 -8.79612 -10.8896
RightFoot  -8.77769 -0.177774 5.27388
RightToes  2.91037e-010 0 -3.6325e-017
Spine  36.6881 -7.79403 -9.99973
Spine1  59.8894 0.383567 -21.1114
HEad  -72.1566 29.3751 -2.18985
LeftShoulder1  -0.3366 13.0119 5.64074
LeftArm  -101.806 -41.39 59.9928
LeftForeArm  -31.6037 -5.38092 5.53052
LeftHand  0.338864 2.30362 -13.4853
RightShoulder  -16.5844 35.979 -54.7035
RightArm  -107.528 35.6897 -28.3128
RightForeArm  -30.6921 2.9034 -15.59
RightHand  0.786593 1.69877 12.7027
LeftUpLeg  -87.4764 25.9235 -22.3151
LeftLeg  52.4149 -2.665 -3.2588
LeftFoot  -10.4696 0.0361895 3.51952
LeftToes  -4.9116e-011 5.71383e-011 -3.31847e-011
606
root  -1.79878 34.2749 -134.517 -141.224 -1.70698 -174.952
RightUpLeg  -75.9717 -8.40267 9.28563
RightLeg  47.0309 -9.26386 -10.8235
RightFoot  -7.77719 -0.224429 5.50819
RightToes  2.91037e-010 0 -3.6325e-017
Spine  37.8991 -6.80502 -8.29572
Spine1  56.8973 0.416785 -19.6461
HEad  -69.4365 25.8529 -0.743226
LeftShoulder1  -0.194036 10.2214 6.37127
LeftArm  -103.464 -44.2672 60.7064
LeftForeArm  -27.5116 -3.88254 4.17446
LeftHand  0.19394 3.28501 -12.1558
RightShoulder  -15.9127 37.9277 -51.0482
RightArm  -97.7229 36.2203 -27.4008
RightForeArm  -33.4864 -0.273077 -14.666
RightHand  0.617311 1.13852 10.8678
LeftUpLeg  -85.8713 26.6964 -22.674
LeftLeg  51.1117 -2.83472 -3.32278
LeftFoot  -9.83656 0.0103627 3.71631
LeftToes  -4.9116e-011 5.71383e-011 -3.31847e-011
607
root  -1.84103 34.5961 -134.392 -141.449 -1.11689 -175.052
RightUpLeg  -74.6878 -8.2004 8.94792
RightLeg  44.6163 -9.5675 -10.2751
RightFoot  -6.39724 -0.264645 5.11742
RightToes  2.91037e-010 0 -3.6325e-017
Spine  38.3406 -6.14136 -6.71734
Spine1  53.0659 0.612493 -18.6929
HEad  -66.1937 22.7575 0.781825
LeftShoulder1  -0.0885876 7.30903 7.00295
LeftArm  -104.337 -47.5324 60.7841
LeftForeArm  -22.2165 -2.52579 2.33557
LeftHand  0.157278 3.03159 -8.86092
RightShoulder  -15.0532 40.5125 -46.6631
RightArm  -92.0945 36.5438 -26.3486
RightForeArm  -30.3039 -1.95879 -12.6879
RightHand  0.411906 0.398435 8.24455
LeftUpLeg  -84.8005 27.1597 -23.3471
LeftLeg  48.9573 -3.05488 -3.32903
LeftFoot  -8.75073 -0.0384078 4.02688
LeftToes  -4.9116e-011 5.71383e-011 -3.31847e-011
